<svg xmlns="http://www.w3.org/2000/svg" xmlns:xlink="http://www.w3.org/1999/xlink" xmlns:lucid="lucid" width="1940" height="1220"><g transform="translate(-780 -400)" lucid:page-tab-id="0_0"><path d="M0 0h3676.8v2582.4H0z" fill="#fff"/><path d="M1100 482c0-16.57 13.43-30 30-30h1540c16.57 0 30 13.43 30 30v1088c0 16.57-13.43 30-30 30H1130c-16.57 0-30-13.43-30-30z" stroke="#474747" fill-opacity="0"/><path d="M1208 454.4v3.54c0 6.42-7.1 13.05-15.76 13.05h-46.48c-8.66 0-15.75-6.64-15.75-13.06v-3.54z" fill="#9d5125"/><path d="M1160.03 420c8.03 0 14.82 4.4 18.17 11.67 4.6-3.14 10.92-1.98 14.04 2.65 1.17 1.64 1.7 3.32 1.8 5.3 7.87.68 13.95 8.25 13.95 14.27v1.3c0 6.45-7.1 13-15.76 13h-46.5c-8.64 0-15.74-6.55-15.74-13v-1.3c0-5.02 4.2-11.87 10.06-13.56v-.57c.08-10.95 8.97-19.82 19.97-19.77z" fill="#f58535"/><path d="M1149.54 443.13l-5.2 18.2h3.04l1.17-4.43h5.38l1.1 4.43h3.05l-4.8-18.2zm-.47 11.4l2.22-8.98 2.1 8.97zM1171.2 457.34h-.03l-2.47-14.2h-3.1l-2.4 14.13h-.06l-2.4-14.14h-2.95l3.53 18.2h3.38l2.35-13.7h.06l2.36 13.7h3.4l3.64-18.2h-2.9l-2.4 14.2zM1185.9 451.4l-1.98-.72c-1.93-.7-2.74-1.53-2.74-3.1-.17-1.26.74-2.43 2-2.6.16-.02.3-.02.45-.02 1.26-.17 2.4.72 2.58 1.96.04.25.03.44 0 .68v.38h2.93v-.4c0-1.9-.5-4.8-5.18-4.8-3.44 0-5.7 1.84-5.7 5.16 0 2.6 1.1 3.97 3.82 5l2 .68c1.6.23 2.73 1.6 2.64 3.2.04 1.45-1.08 2.64-2.5 2.68h-.28c-2 0-3-1.12-3-3.33v-.47h-2.9v.44c0 2.54 1.02 5.53 5.52 5.53 3.7 0 6.07-1.6 6.07-5.48.04-2.5-1.1-3.9-3.7-4.8z" fill="#fff"/><use xlink:href="#a" transform="matrix(1,0,0,1,1100,1570) translate(745.5246913580247 11.11111111111111)"/><use xlink:href="#b" transform="matrix(1,0,0,1,1100,1570) translate(801.4506172839506 11.11111111111111)"/><path d="M840.12 792.45h-37.07c-1.7 0-3.05-1.37-3.05-3.04v-4.53c0-16.96 11.14-31.18 27.68-35.16.77-.16 1.47-.07 2.17.3 4.87 2.62 10.15 2.62 15.02 0 .7-.37 1.4-.46 2.17-.3 4.34 1.08 7.92 2.62 11.6 5.1l-3.4 5.06c-2.75-1.8-5.33-3-8.55-3.85-6.17 2.83-12.5 2.83-18.66 0-13.2 3.7-21.94 15.2-21.94 28.87v1.5h34.02z" stroke="#fff" stroke-opacity="0" fill="#232f3e"/><path d="M837.3 757.9c-11 0-19.95-8.9-19.95-19.9 0-11 8.94-19.93 19.96-19.93 11.04-.12 20.02 8.72 20.14 19.68.08 7.6-3.77 14.1-10.46 17.7-3.1 1.7-6.1 2.46-9.67 2.46zm0-33.78c-7.68 0-13.98 6.18-14.02 13.87 0 5.2 2.65 9.67 7.26 12.14 4.37 2.36 9.18 2.36 13.55 0 4.64-2.5 7.33-7.05 7.25-12.35-.08-7.62-6.38-13.72-14.04-13.64zM940 792.45h-37.1v-6.08h34.04v-1.5c0-13.7-8.76-25.2-21.93-28.88-6.16 2.85-12.5 2.85-18.68 0-3.23.88-5.87 2.12-8.63 4.05l-3.48-5c3.7-2.57 7.3-4.2 11.63-5.3.77-.18 1.53-.1 2.24.3 4.8 2.6 10.16 2.6 15.03 0 .7-.4 1.4-.48 2.18-.3 16.52 3.97 27.7 18.18 27.7 35.12v4.54c0 1.68-1.36 3-3 3.05z" stroke="#fff" stroke-opacity="0" fill="#232f3e"/><path d="M905.6 757.9c-11.1 0-20.08-9.02-20.08-20.1 0-11.08 9.06-20.04 20.16-20.04s20.08 9.04 20.08 20.12c0 7.55-3.82 13.97-10.46 17.6-3.14 1.67-6.16 2.43-9.7 2.43zm0-33.75c-7.68-.04-13.96 6.14-14 13.85-.04 5.22 2.62 9.68 7.24 12.13 4.35 2.36 9.18 2.36 13.56 0 4.7-2.5 7.4-7.07 7.33-12.4-.16-7.64-6.48-13.74-14.13-13.58zM920.1 860.75h-97.32c-1.65 0-3-1.33-3-3.02v-6.46c-.1-23.38 15.4-43.04 38.12-48.57.83-.23 1.55-.12 2.27.23 7.24 3.9 15.2 3.9 22.52 0 .6-.35 1.34-.46 2.16-.23 22.83 5.47 38.33 25.13 38.23 48.57v6.46c0 1.7-1.36 3.02-3 3.02zm-94.22-6.05h91.1v-3.43c0-20.12-13-37.05-32.53-42.3-8.57 4.14-17.56 4.14-26.13 0-19.53 5.25-32.44 22.18-32.44 42.3z" stroke="#fff" stroke-opacity="0" fill="#232f3e"/><path d="M871.53 811.86c-4.82 0-8.93-1.04-13.2-3.34-13.26-7.27-18.14-23.84-10.9-37.12 7.28-13.23 23.9-18.1 37.2-10.88 13.26 7.27 18.14 23.84 10.9 37.12-2.62 4.8-6.08 8.26-10.9 10.88-4.22 2.3-8.33 3.34-13.1 3.34zm0-47.84c-7.94-.1-14.8 3.88-18.63 10.88-5.48 10.1-1.75 22.8 8.4 28.32 6.56 3.5 13.8 3.5 20.37 0 7.07-3.83 11.13-10.66 11.02-18.64-.18-11.48-9.66-20.72-21.17-20.56z" stroke="#fff" stroke-opacity="0" fill="#232f3e"/><path d="M940.8 792.45h-71c-1.2 0-2.18-.98-2.18-2.2v-4.72c-.07-17.06 11.23-31.4 27.8-35.44.62-.18 1.14-.1 1.67.16 5.27 2.85 11.07 2.85 16.42 0 .45-.25.98-.34 1.58-.17 16.66 3.98 27.97 18.33 27.9 35.43v4.7c0 1.24-1 2.22-2.2 2.22zm-68.73-4.42h66.47v-2.5c0-14.68-9.5-27.03-23.74-30.85-6.25 3-12.8 3-19.06 0-14.25 3.82-23.67 16.17-23.67 30.85z" stroke="#fff" stroke-opacity="0" stroke-width=".73" fill="#fff" fill-opacity="0"/><path d="M873.18 792.45h-71c-1.2 0-2.18-.98-2.18-2.2v-4.72c-.08-17.06 11.23-31.4 27.8-35.44.6-.18 1.14-.1 1.67.16 5.27 2.85 11.08 2.85 16.43 0 .45-.25.98-.34 1.58-.17 16.66 3.98 27.96 18.33 27.9 35.43v4.7c0 1.24-1 2.22-2.2 2.22zm-68.73-4.42h66.47v-2.5c0-14.68-9.5-27.03-23.74-30.85-6.26 3-12.8 3-19.07 0-14.23 3.82-23.65 16.17-23.65 30.85z" stroke="#fff" stroke-opacity="0" stroke-width=".73" fill="#fff" fill-opacity="0"/><use xlink:href="#c" transform="matrix(1,0,0,1,770,869.7539329413634) translate(72.5493827160494 17.77777777777778)"/><path d="M1580 610c0-16.57 13.43-30 30-30h895.58c16.56 0 30 13.43 30 30v312.02c0 16.57-13.44 30-30 30H1610c-16.57 0-30-13.43-30-30z" fill-opacity="0"/><path d="M1595.04 584.1l3.17-1.7 4.72-1.56 4.93-.76 2.15-.08h14.93m14.92 0h29.86m14.93 0h29.85m14.93 0h29.86m14.93 0h29.84m14.93 0h29.85m14.93 0h29.85m14.93 0h29.85m14.92 0h29.86m14.92 0h29.86m14.92 0h29.85m14.94 0h29.85m14.92 0h29.85m14.93 0h29.85m14.93 0h29.85m14.93 0h29.85m14.93 0h29.86m14.9 0h29.87m14.92 0h29.84m14.93 0h29.85m14.93 0h14.93l5 .42 4.82 1.22 4.54 2 .6.42m10.95 10.98l1.67 3.17 1.57 4.72.76 4.93.08 2.15v14.86m0 14.86v29.7m0 14.87V714m0 14.86v29.72m0 14.86v29.7m0 14.87v29.73m0 14.86v29.7m0 14.86v14.86l-.42 5-1.23 4.82-2 4.54-.4.6m-11 10.95l-3.17 1.68-4.7 1.58-4.93.76-2.15.08h-14.93m-14.93 0h-29.85m-14.93 0h-29.85m-14.93 0h-29.86m-14.9 0h-29.87m-14.92 0h-29.84m-14.93 0h-29.85m-14.93 0h-29.85m-14.93 0h-29.85m-14.93 0h-29.86m-14.93 0h-29.84m-14.92 0h-29.86m-14.92 0h-29.86m-14.92 0h-29.85m-14.93 0h-29.85m-14.93 0h-29.85m-14.93 0h-29.85m-14.94 0h-29.85m-14.92 0h-29.85m-14.92 0h-29.85m-14.92 0H1610l-5-.42-4.82-1.23-4.54-2-.6-.4m-10.95-11l-1.7-3.17-1.56-4.7-.76-4.93-.08-2.15v-14.86m0-14.86v-29.7m0-14.87V818m0-14.85v-29.7m0-14.87v-29.72m0-14.85v-29.7m0-14.87v-29.7m0-14.87V610l.42-5 1.22-4.82 2-4.54.42-.6" stroke="#f7981f" stroke-width="3" fill="none"/><use xlink:href="#d" transform="matrix(1,0,0,1,1580,922.0172413793103) translate(397.53703703703707 11.11111111111111)"/><use xlink:href="#e" transform="matrix(1,0,0,1,1580,922.0172413793103) translate(507.90740740740745 11.11111111111111)"/><path d="M1580 1150c0-16.57 13.43-30 30-30h895.58c16.56 0 30 13.43 30 30v265.52c0 16.57-13.44 30-30 30H1610c-16.57 0-30-13.43-30-30z" fill-opacity="0"/><path d="M1595.04 1124.1l3.17-1.7 4.72-1.56 4.93-.76 2.15-.08h14.93m14.92 0h29.86m14.93 0h29.85m14.93 0h29.86m14.93 0h29.84m14.93 0h29.85m14.93 0h29.85m14.93 0h29.85m14.92 0h29.86m14.92 0h29.86m14.92 0h29.85m14.94 0h29.85m14.92 0h29.85m14.93 0h29.85m14.93 0h29.85m14.93 0h29.85m14.93 0h29.86m14.9 0h29.87m14.92 0h29.84m14.93 0h29.85m14.93 0h14.93l5 .42 4.82 1.22 4.54 2 .6.42m10.95 10.98l1.67 3.17 1.57 4.72.76 4.93.08 2.15v14.75m0 14.75v29.5m0 14.75v29.5m0 14.76v29.5m0 14.76v29.5m0 14.75v29.52m0 14.75v14.75l-.42 5-1.23 4.82-2 4.54-.4.6m-11 10.95l-3.17 1.68-4.7 1.58-4.93.76-2.15.08h-14.93m-14.93 0h-29.85m-14.93 0h-29.85m-14.93 0h-29.86m-14.9 0h-29.87m-14.92 0h-29.84m-14.93 0h-29.85m-14.93 0h-29.85m-14.93 0h-29.85m-14.93 0h-29.86m-14.93 0h-29.84m-14.92 0h-29.86m-14.92 0h-29.86m-14.92 0h-29.85m-14.93 0h-29.85m-14.93 0h-29.85m-14.93 0h-29.85m-14.94 0h-29.85m-14.92 0h-29.85m-14.92 0h-29.85m-14.92 0H1610l-5-.42-4.82-1.23-4.54-2-.6-.4m-10.95-11l-1.7-3.17-1.56-4.7-.76-4.93-.08-2.15v-14.75m0-14.75v-29.5m0-14.76v-29.5m0-14.75V1268m0-14.74v-29.5m0-14.76v-29.5m0-14.75V1150l.42-5 1.22-4.82 2-4.54.42-.6" stroke="#f7981f" stroke-width="3" fill="none"/><use xlink:href="#d" transform="matrix(1,0,0,1,1580,1415.5172413793102) translate(397.53703703703707 11.11111111111111)"/><use xlink:href="#e" transform="matrix(1,0,0,1,1580,1415.5172413793102) translate(507.90740740740745 11.11111111111111)"/><path d="M1320 542c0-16.57 13.43-30 30-30h1240c16.57 0 30 13.43 30 30v948c0 16.57-13.43 30-30 30H1350c-16.57 0-30-13.43-30-30z" stroke="#474747" fill-opacity="0"/><path d="M1428 514.4v3.54c0 6.42-7.1 13.05-15.76 13.05h-46.48c-8.66 0-15.75-6.64-15.75-13.06v-3.54z" fill="#9d5125"/><path d="M1380.03 480c8.03 0 14.82 4.4 18.17 11.67 4.6-3.14 10.92-1.98 14.04 2.65 1.17 1.64 1.7 3.32 1.8 5.3 7.87.68 13.95 8.25 13.95 14.27v1.3c0 6.45-7.1 13-15.76 13h-46.5c-8.64 0-15.74-6.55-15.74-13v-1.3c0-5.02 4.2-11.87 10.06-13.56v-.57c.08-10.95 8.97-19.82 19.97-19.77z" fill="#f58535"/><path d="M1368.9 503.13h3.08l3.1 14.58 3.32-14.54h3.1l-4.6 18.2h-3.7zM1383.37 503.13h5.77c3.5 0 5.04 2.2 5.04 5.3 0 3.1-1.9 5.4-5.33 5.4h-2.57v7.53h-2.9zm2.9 8.5h2.08c1.56 0 2.9-.83 2.9-3.14 0-1.98-.78-3.17-3.1-3.17h-1.87zM1407.8 514.83v.38c0 3.32-1.3 6.52-5.6 6.52-4.6 0-6.04-2.97-6.04-9.47s1.43-9.46 6.05-9.46c5.2 0 5.54 3.8 5.54 5.7v.37h-2.9v-.3c0-1.7-.5-3.64-2.6-3.57-2.08.08-3.1 1.35-3.1 7.22 0 5.87.92 7.3 3.14 7.3 2.42 0 2.7-2.7 2.7-4.42v-.3z" fill="#fff"/><use xlink:href="#f" transform="matrix(1,0,0,1,1320,1490) translate(554.5061728395062 11.11111111111111)"/><use xlink:href="#g" transform="matrix(1,0,0,1,1320,1490) translate(619.7530864197531 11.11111111111111)"/><use xlink:href="#b" transform="matrix(1,0,0,1,1320,1490) translate(692.4691358024692 11.11111111111111)"/><path d="M1640 688.5c0-16.57 13.43-30 30-30h380c16.57 0 30 13.43 30 30v183.67c0 16.57-13.43 30-30 30h-380c-16.57 0-30-13.43-30-30z" stroke="#474747" fill-opacity="0"/><path d="M1701.97 646.74v-5.9c0-7.25-5.88-13.13-13.12-13.13-7.24 0-13.12 5.9-13.12 13.14v5.9h6.64v-5.9c0-3.58 2.9-6.5 6.48-6.5 3.57 0 6.48 2.92 6.48 6.5v5.9h6.64z" fill="#876a22"/><path d="M1701.98 646.76h5.42v20.83H1670v-20.84h5.72v-7.1c0-7.28 5.87-13.16 13.13-13.16 7.26 0 13.13 5.88 13.13 13.15v7.1zm-6.66 0v-7.1c0-3.6-2.88-6.5-6.47-6.5-3.6 0-6.47 2.9-6.47 6.5v7.1h12.94z" fill="#daa835"/><path d="M1670 667.6h37.4v.9H1670z" fill="#876a22"/><use xlink:href="#h" transform="matrix(1,0,0,1,1640,872.1724137931035) translate(145.37037037037038 11.11111111111111)"/><use xlink:href="#i" transform="matrix(1,0,0,1,1640,872.1724137931035) translate(209.44444444444446 11.11111111111111)"/><use xlink:href="#j" transform="matrix(1,0,0,1,1640,872.1724137931035) translate(282.28395061728395 11.11111111111111)"/><path d="M1660 1140.16c0-16.57 13.43-30 30-30h340c16.57 0 30 13.43 30 30V1330c0 16.57-13.43 30-30 30h-340c-16.57 0-30-13.43-30-30z" stroke="#474747" fill-opacity="0"/><path d="M1721.97 1098.4v-5.9c0-7.26-5.88-13.14-13.12-13.14-7.24 0-13.12 5.88-13.12 13.13v5.9h6.64v-5.9c0-3.58 2.9-6.5 6.48-6.5 3.57 0 6.48 2.92 6.48 6.5v5.9h6.64z" fill="#876a22"/><path d="M1721.98 1098.4h5.42v20.85H1690v-20.84h5.72v-7.1c0-7.27 5.87-13.14 13.13-13.14 7.26 0 13.13 5.87 13.13 13.14v7.1zm-6.66 0v-7.1c0-3.57-2.88-6.5-6.47-6.5-3.6 0-6.47 2.93-6.47 6.5v7.1h12.94z" fill="#daa835"/><path d="M1690 1119.25h37.4v.9H1690z" fill="#876a22"/><use xlink:href="#h" transform="matrix(1,0,0,1,1660,1330.0000000000002) translate(125.37037037037038 11.11111111111111)"/><use xlink:href="#i" transform="matrix(1,0,0,1,1660,1330.0000000000002) translate(189.44444444444446 11.11111111111111)"/><use xlink:href="#k" transform="matrix(1,0,0,1,1660,1330.0000000000002) translate(262.28395061728395 11.11111111111111)"/><path d="M2191.2 728.17c0-16.57 13.43-30 30-30H2450c16.57 0 30 13.43 30 30v144c0 16.57-13.43 30-30 30h-228.8c-16.57 0-30-13.43-30-30z" stroke="#474747" fill-opacity="0"/><path d="M2253.17 686.4v-5.9c0-7.24-5.88-13.12-13.12-13.12-7.24 0-13.12 5.88-13.12 13.13v5.9h6.64v-5.9c0-3.57 2.9-6.48 6.48-6.48 3.57 0 6.48 2.9 6.48 6.5v5.9h6.64z" fill="#876a22"/><path d="M2253.18 686.43h5.42v20.84h-37.4v-20.84h5.72v-7.1c0-7.28 5.87-13.16 13.13-13.16 7.26 0 13.13 5.88 13.13 13.15v7.1zm-6.66 0v-7.1c0-3.58-2.88-6.5-6.47-6.5-3.6 0-6.47 2.92-6.47 6.5v7.1h12.94z" fill="#daa835"/><path d="M2221.2 707.27h37.4v.9h-37.4z" fill="#876a22"/><use xlink:href="#l" transform="matrix(1,0,0,1,2191.2000000000007,872.1724137931035) translate(65.5493827160494 11.11111111111111)"/><use xlink:href="#i" transform="matrix(1,0,0,1,2191.2000000000007,872.1724137931035) translate(138.26543209876544 11.11111111111111)"/><use xlink:href="#j" transform="matrix(1,0,0,1,2191.2000000000007,872.1724137931035) translate(211.10493827160494 11.11111111111111)"/><path d="M2191.2 1182c0-16.57 13.43-30 30-30H2450c16.57 0 30 13.43 30 30v144c0 16.57-13.43 30-30 30h-228.8c-16.57 0-30-13.43-30-30z" stroke="#474747" fill-opacity="0"/><path d="M2253.17 1140.24v-5.9c0-7.25-5.88-13.13-13.12-13.13-7.24 0-13.12 5.9-13.12 13.14v5.9h6.64v-5.9c0-3.58 2.9-6.5 6.48-6.5 3.57 0 6.48 2.92 6.48 6.5v5.9h6.64z" fill="#876a22"/><path d="M2253.18 1140.26h5.42v20.83h-37.4v-20.84h5.72v-7.1c0-7.28 5.87-13.16 13.13-13.16 7.26 0 13.13 5.88 13.13 13.15v7.1zm-6.66 0v-7.1c0-3.6-2.88-6.5-6.47-6.5-3.6 0-6.47 2.9-6.47 6.5v7.1h12.94z" fill="#daa835"/><path d="M2221.2 1161.1h37.4v.9h-37.4z" fill="#876a22"/><use xlink:href="#l" transform="matrix(1,0,0,1,2191.2000000000007,1326) translate(65.5493827160494 11.11111111111111)"/><use xlink:href="#i" transform="matrix(1,0,0,1,2191.2000000000007,1326) translate(138.26543209876544 11.11111111111111)"/><use xlink:href="#k" transform="matrix(1,0,0,1,2191.2000000000007,1326) translate(211.10493827160494 11.11111111111111)"/><path d="M1145.65 950.76c0 33.8-19.2 61.24-42.83 61.24S1060 984.56 1060 950.76s19.2-61.23 42.82-61.23c23.64 0 42.83 27.43 42.83 61.23z" fill="#9d5025"/><path d="M1060 945.73h85.65v5.03H1060v-5.03z" fill="#9d5025"/><path d="M1145.65 945.74c0 33.8-19.2 61.23-42.83 61.23S1060 979.54 1060 945.74s19.2-61.23 42.82-61.23c23.64 0 42.83 27.44 42.83 61.24z" fill="#f58536"/><path d="M1070.53 951.83v-1.6c.33-7.42 3.23-13.6 7.94-16.84.45-13.68 8.58-24.23 18.2-23.52 6 .4 11.02 4.77 14.05 12.2 4.9-2.95 10.52.3 12.58 7.24.33 1 .52 1.83.65 2.83 6.45 1.82 11.1 10.66 11.1 18.1v1.46c0 9.08-6.6 17.04-14.07 17.04h-36.45c-7.42.05-14-7.9-14-16.9z" fill="#fff"/><path d="M1111.6 928.6l-2.74 2.68-1.4-4.32c-2.12-6.73-6.47-10.86-11.66-10.9h-.05c-7.1 0-12.9 8.26-12.9 18.47v3.43l-2 .84c-3.4 1.95-5.63 6.22-5.9 11.47v1.48c0 4.97 4.23 10.73 9.64 10.73h36.48c5.46 0 9.65-5.76 9.65-10.73v-1.48c0-5.02-3.9-11.56-8.43-12.07l-2.45-.28-.17-3.48c0-1.5-.33-2.7-.9-3.9-1.6-3.4-4.85-4.23-7.2-1.9z" fill="#f58536"/><use xlink:href="#m" transform="matrix(1,0,0,1,1060,1012.0093754965835) translate(6.024691358024697 17.77777777777778)"/><use xlink:href="#n" transform="matrix(1,0,0,1,1060,1012.0093754965835) translate(1.672839506172842 44.44444444444444)"/><path d="M2160 606c0-3.3 2.7-6 6-6h328c3.3 0 6 2.7 6 6v768c0 3.3-2.7 6-6 6h-328c-3.3 0-6-2.7-6-6z" fill="#fff" fill-opacity="0"/><path d="M2176.44 600h8.94m5.97 0h8.94m5.95 0h8.95m5.96 0h8.95m5.97 0h8.95m5.96 0h8.95m5.96 0h8.94m5.96 0h8.95m5.96 0h8.95m5.97 0h8.94m5.97 0h8.94m5.97 0h8.94m5.97 0h8.94m5.95 0h8.95m5.96 0h8.95m5.97 0h8.95m5.96 0h8.95m5.96 0h8.94m5.96 0h8.95m5.96 0h8.95m5.97 0h8.94m5.97 0h4.47l3.03.82 2.15 2.15.82 3.03v4.52m0 6.02v9.04m0 6.02v9.04m0 6.02v9.03m0 6.02v9.03m0 6.03v9.03m0 6.04v9.03m0 6.02v9.03m0 6.02V731m0 6v9.05m0 6.02v9.04m0 6.03v9.03m0 6.03v9.02m0 6.03v9.03m0 6.03v9.04m0 6.02v9.04m0 6.02v9.04m0 6.02v9.04m0 6.02v9.04m0 6.02v9.04m0 6.02v9.03m0 6.02v9.03m0 6.03v9.03m0 6.04v9.03m0 6.02v9.03m0 6.02V987m0 6v9.05m0 6.02v9.04m0 6.03v9.03m0 6.03v9.02m0 6.03v9.03m0 6.03v9.04m0 6.02v9.04m0 6.02v9.04m0 6.02v9.04m0 6.02v9.04m0 6.02v9.04m0 6.02v9.03m0 6.02v9.03m0 6.03v9.03m0 6.04v9.03m0 6.02v9.03m0 6.02v9.04m0 6v9.05m0 6.02v9.04m0 6.03v9.03m0 6.03v9.02m0 6.03v9.03m0 6.03v9.04m0 6.02v9.04m0 6.02v9.04m0 6.02v4.52l-.82 3.03-2.15 2.15-3.03.82h-4.47m-5.97 0h-8.94m-5.97 0h-8.94m-5.95 0h-8.95m-5.96 0h-8.95m-5.97 0h-8.95m-5.96 0h-8.95m-5.96 0h-8.94m-5.96 0h-8.95m-5.96 0h-8.95m-5.97 0h-8.94m-5.97 0h-8.94m-5.97 0h-8.94m-5.97 0h-8.94m-5.95 0h-8.95m-5.96 0h-8.95m-5.97 0h-8.95m-5.96 0h-8.95m-5.96 0h-8.94m-5.96 0h-8.95m-5.96 0h-8.95m-5.97 0h-8.94m-5.97 0H2166l-3.03-.82-2.15-2.15-.82-3.03v-4.52m0-6.02v-9.04m0-6.02v-9.04m0-6.02v-9.03m0-6.02v-9.03m0-6.03v-9.03m0-6.04v-9.03m0-6.02v-9.03m0-6.02V1249m0-6v-9.05m0-6.02v-9.04m0-6.03v-9.03m0-6.03v-9.02m0-6.03v-9.03m0-6.03v-9.04m0-6.02v-9.04m0-6.02v-9.04m0-6.02v-9.04m0-6.02v-9.04m0-6.02v-9.04m0-6.02v-9.03m0-6.02v-9.03m0-6.03v-9.03m0-6.04v-9.03m0-6.02v-9.03m0-6.02V993m0-6v-9.05m0-6.02v-9.04m0-6.03v-9.03m0-6.03v-9.02m0-6.03v-9.03m0-6.03v-9.04m0-6.02v-9.04m0-6.02v-9.04m0-6.02v-9.04m0-6.02v-9.04m0-6.02v-9.04m0-6.02v-9.03m0-6.02v-9.03m0-6.03v-9.03m0-6.04v-9.03m0-6.02v-9.03m0-6.02V737m0-6v-9.05m0-6.02v-9.04m0-6.03v-9.03m0-6.03v-9.02m0-6.03v-9.03m0-6.03v-9.04m0-6.02v-9.04m0-6.02v-9.04m0-6.02V606l.82-3.03 2.15-2.15 3.03-.82h4.47" stroke="#d86613" stroke-width="3" fill="none"/><path d="M2302 600h56v56h-56v-56z" stroke="#fff" stroke-opacity="0" fill="#d86613"/><path d="M2321.68 623.73l-1.14 1.13 2.33 2.34H2310v1.6h12.87l-2.33 2.34 1.14 1.13 4.27-4.27-4.27-4.27zM2350 627.2h-12.87l2.33-2.34-1.14-1.13-4.27 4.27 4.27 4.27 1.14-1.13-2.33-2.34H2350v-1.6zM2329.2 610.63v12.87h1.6v-12.87l2.34 2.33 1.13-1.13-4.27-4.28-4.27 4.28 1.13 1.13 2.34-2.33zM2330.8 645.37V632.5h-1.6v12.87l-2.34-2.33-1.13 1.13 4.27 4.28 4.27-4.28-1.13-1.13-2.34 2.33z" stroke="#fff" stroke-opacity="0" fill="#fff"/><use xlink:href="#o" transform="matrix(1,0,0,1,2160,671) translate(119.55 14.4)"/><use xlink:href="#p" transform="matrix(1,0,0,1,2160,671) translate(161.55 14.4)"/><path d="M2325 717.76h109.26v109.26H2325V717.76z" stroke="#fff" stroke-opacity="0" stroke-width="2" fill="#d86613"/><path d="M2413.14 776.76h-7.3v-2.9h7.3v-35h-35v7.3h-2.9v-7.3c0-1.58 1.3-2.9 2.9-2.9h35c1.6 0 2.9 1.32 2.9 2.9v35c0 1.6-1.3 2.9-2.9 2.9zM2381.1 808.8h-35c-1.6 0-2.9-1.3-2.9-2.88v-35c0-1.6 1.3-2.9 2.9-2.9h7.3v2.9h-7.3v35h35v-7.3h2.9v7.3c0 1.6-1.32 2.9-2.9 2.9z" stroke="#fff" stroke-opacity="0" stroke-width="2" fill="#fff"/><path d="M2402.94 759.3v-2.94h-4.38c-.1-1.54-1.36-2.8-2.9-2.9v-4.38h-2.93v4.4h-4.34v-4.4h-2.94v4.4h-4.4v-4.4h-2.88v4.4h-4.38v-4.4h-2.9v4.4h-4.37v-4.4h-2.94v4.4c-1.55.08-2.8 1.34-2.9 2.88h-4.38v2.93h4.38v4.38h-4.38v2.9h4.38v4.37h-4.38v2.9h4.38v4.37h-4.38v2.94h4.38v4.33h-4.38v2.93h4.38c.1 1.54 1.35 2.8 2.9 2.9v4.37h2.93v-4.38h4.38v4.38h2.9v-4.38h4.38v4.38h2.9v-4.38h4.38v4.38h2.93v-4.38h4.33v4.38h2.94v-4.38c1.53-.1 2.8-1.35 2.9-2.9h4.37v-2.93h-4.38v-4.34h4.38v-2.94h-4.38v-4.38h4.38v-2.9h-4.38v-4.37h4.38v-2.9h-4.38v-4.38zm-7.27 28.85c0 .14-.14.28-.28.28h-31.53c-.14 0-.28-.14-.28-.28v-31.5c0-.15.13-.3.27-.3h31.52c.13 0 .27.15.27.3z" stroke="#fff" stroke-opacity="0" stroke-width="2" fill="#fff"/><use xlink:href="#q" transform="matrix(1,0,0,1,2295,836.021929127602) translate(19.629629629629633 17.77777777777778)"/><use xlink:href="#r" transform="matrix(1,0,0,1,2295,836.021929127602) translate(107.22222222222223 17.77777777777778)"/><path d="M1720 690h120v120h-120V690z" stroke="#fff" stroke-opacity="0" stroke-width="2" fill="#d86613"/><path d="M1816.8 754.8h-8.02v-3.18h8.02v-38.44h-38.44v8.02h-3.18v-8.02c0-1.75 1.44-3.18 3.18-3.18h38.44c1.75 0 3.18 1.43 3.18 3.18v38.44c0 1.75-1.43 3.18-3.18 3.18zM1781.6 790h-38.44c-1.74 0-3.18-1.43-3.18-3.18v-38.44c0-1.75 1.44-3.18 3.18-3.18h8.02v3.18h-8.02v38.44h38.44v-8.02h3.18v8.02c0 1.75-1.43 3.18-3.18 3.18z" stroke="#fff" stroke-opacity="0" stroke-width="2" fill="#fff"/><path d="M1805.6 735.6v-3.2h-4.8c-.12-1.7-1.5-3.08-3.2-3.2v-4.8h-3.2v4.8h-4.77v-4.8h-3.23v4.8h-4.8v-4.8h-3.2v4.8h-4.8v-4.8h-3.17v4.8h-4.82v-4.8h-3.2v4.8c-1.7.12-3.08 1.5-3.2 3.2h-4.8v3.2h4.8v4.83h-4.8v3.17h4.8v4.8h-4.8v3.2h4.8v4.8h-4.8v3.23h4.8v4.76h-4.8v3.2h4.8c.12 1.7 1.5 3.08 3.2 3.2v4.8h3.2v-4.8h4.83v4.8h3.17v-4.8h4.8v4.8h3.2v-4.8h4.8v4.8h3.23v-4.8h4.76v4.8h3.2v-4.8c1.7-.12 3.08-1.5 3.2-3.2h4.8v-3.2h-4.8v-4.77h4.8v-3.23h-4.8v-4.8h4.8v-3.2h-4.8v-4.8h4.8v-3.17h-4.8v-4.82zm-8 31.7c0 .16-.14.3-.3.3h-34.6c-.16 0-.3-.14-.3-.3v-34.6c0-.16.14-.3.3-.3h34.6c.16 0 .3.14.3.3z" stroke="#fff" stroke-opacity="0" stroke-width="2" fill="#fff"/><use xlink:href="#q" transform="matrix(1,0,0,1,1690,819) translate(24.629629629629633 17.77777777777778)"/><use xlink:href="#r" transform="matrix(1,0,0,1,1690,819) translate(112.22222222222223 17.77777777777778)"/><path d="M1720 1159.08h120v120h-120v-120z" stroke="#fff" stroke-opacity="0" stroke-width="2" fill="#d86613"/><path d="M1816.8 1223.88h-8.02v-3.18h8.02v-38.44h-38.44v8.02h-3.18v-8.02c0-1.75 1.44-3.18 3.18-3.18h38.44c1.75 0 3.18 1.43 3.18 3.18v38.44c0 1.74-1.43 3.18-3.18 3.18zM1781.6 1259.08h-38.44c-1.74 0-3.18-1.44-3.18-3.18v-38.44c0-1.75 1.44-3.18 3.18-3.18h8.02v3.18h-8.02v38.44h38.44v-8.02h3.18v8.02c0 1.74-1.43 3.18-3.18 3.18z" stroke="#fff" stroke-opacity="0" stroke-width="2" fill="#fff"/><path d="M1805.6 1204.7v-3.24h-4.8c-.12-1.68-1.5-3.07-3.2-3.17v-4.82h-3.2v4.8h-4.77v-4.8h-3.23v4.8h-4.8v-4.8h-3.2v4.8h-4.8v-4.8h-3.17v4.8h-4.82v-4.8h-3.2v4.8c-1.7.1-3.08 1.5-3.2 3.18h-4.8v3.23h4.8v4.8h-4.8v3.18h4.8v4.8h-4.8v3.18h4.8v4.82h-4.8v3.22h4.8v4.76h-4.8v3.23h4.8c.12 1.68 1.5 3.06 3.2 3.16v4.82h3.2v-4.82h4.83v4.82h3.17v-4.82h4.8v4.82h3.2v-4.82h4.8v4.82h3.23v-4.82h4.76v4.82h3.2v-4.82c1.7-.1 3.08-1.48 3.2-3.17h4.8v-3.24h-4.8v-4.76h4.8v-3.22h-4.8v-4.82h4.8v-3.17h-4.8v-4.82h4.8v-3.18h-4.8v-4.8zm-8 31.68c0 .16-.14.3-.3.3h-34.6c-.16 0-.3-.14-.3-.3v-34.6c0-.16.14-.32.3-.32h34.6c.16 0 .3.16.3.3z" stroke="#fff" stroke-opacity="0" stroke-width="2" fill="#fff"/><use xlink:href="#q" transform="matrix(1,0,0,1,1690,1288.0775862068967) translate(24.629629629629633 17.77777777777778)"/><use xlink:href="#r" transform="matrix(1,0,0,1,1690,1288.0775862068967) translate(112.22222222222223 17.77777777777778)"/><path d="M2300 1159.08h120v120h-120v-120z" stroke="#fff" stroke-opacity="0" stroke-width="2" fill="#d86613"/><path d="M2396.8 1223.88h-8.02v-3.18h8.02v-38.44h-38.44v8.02h-3.18v-8.02c0-1.75 1.44-3.18 3.18-3.18h38.44c1.75 0 3.18 1.43 3.18 3.18v38.44c0 1.74-1.43 3.18-3.18 3.18zM2361.6 1259.08h-38.44c-1.74 0-3.18-1.44-3.18-3.18v-38.44c0-1.75 1.44-3.18 3.18-3.18h8.02v3.18h-8.02v38.44h38.44v-8.02h3.18v8.02c0 1.74-1.43 3.18-3.18 3.18z" stroke="#fff" stroke-opacity="0" stroke-width="2" fill="#fff"/><path d="M2385.6 1204.7v-3.24h-4.8c-.12-1.68-1.5-3.07-3.2-3.17v-4.82h-3.2v4.8h-4.77v-4.8h-3.23v4.8h-4.8v-4.8h-3.2v4.8h-4.8v-4.8h-3.17v4.8h-4.82v-4.8h-3.2v4.8c-1.7.1-3.08 1.5-3.2 3.18h-4.8v3.23h4.8v4.8h-4.8v3.18h4.8v4.8h-4.8v3.18h4.8v4.82h-4.8v3.22h4.8v4.76h-4.8v3.23h4.8c.12 1.68 1.5 3.06 3.2 3.16v4.82h3.2v-4.82h4.83v4.82h3.17v-4.82h4.8v4.82h3.2v-4.82h4.8v4.82h3.23v-4.82h4.76v4.82h3.2v-4.82c1.7-.1 3.08-1.48 3.2-3.17h4.8v-3.24h-4.8v-4.76h4.8v-3.22h-4.8v-4.82h4.8v-3.17h-4.8v-4.82h4.8v-3.18h-4.8v-4.8zm-8 31.68c0 .16-.14.3-.3.3h-34.6c-.16 0-.3-.14-.3-.3v-34.6c0-.16.14-.32.3-.32h34.6c.16 0 .3.16.3.3z" stroke="#fff" stroke-opacity="0" stroke-width="2" fill="#fff"/><use xlink:href="#q" transform="matrix(1,0,0,1,2270,1288.0775862068967) translate(24.629629629629633 17.77777777777778)"/><use xlink:href="#r" transform="matrix(1,0,0,1,2270,1288.0775862068967) translate(112.22222222222223 17.77777777777778)"/><path d="M2060 742.36c0 31.8-25.76 57.63-57.5 57.63s-57.5-25.83-57.5-57.64c0-31.8 25.76-57.63 57.5-57.63s57.5 25.82 57.5 57.63z" fill="#9d5025"/><path d="M2060 737.63c0 31.8-25.76 57.63-57.5 57.63s-57.5-25.82-57.5-57.63c0-31.8 25.76-57.63 57.5-57.63s57.5 25.82 57.5 57.63z" fill="#f58536"/><path d="M2018.06 710.86h6.06v53.5h-6.06v-53.5zM2035.1 724.4l15.88 12.97-15.87 13.48V724.4z" fill="#fff"/><path d="M1978.98 734.6l3.5 2.8-3.85 3.26h59.15v-6.06h-58.8zM1978.63 713.9h45.5v-6.06h-45.14l3.45 2.82-3.82 3.25zM1982.45 764.15l-3.82 3.26h45.5v-6.06h-45.14l3.45 2.8zM1966 727.04l12.68 10.35-12.7 10.8v-21.16zM1966 700.3l12.68 10.35-12.7 10.8v-21.16zM1966 753.8l12.68 10.36-12.7 10.78V753.8z" fill="#fff"/><use xlink:href="#s" transform="matrix(1,0,0,1,1945,800) translate(10.49382716049383 17.77777777777778)"/><use xlink:href="#t" transform="matrix(1,0,0,1,1945,800) translate(62.28395061728395 17.77777777777778)"/><use xlink:href="#n" transform="matrix(1,0,0,1,1945,800) translate(16.172839506172842 44.44444444444444)"/><path d="M2035 1201.44c0 31.8-25.76 57.63-57.5 57.63s-57.5-25.82-57.5-57.63c0-31.82 25.76-57.63 57.5-57.63s57.5 25.82 57.5 57.64z" fill="#9d5025"/><path d="M2035 1196.7c0 31.82-25.76 57.64-57.5 57.64s-57.5-25.82-57.5-57.63c0-31.8 25.76-57.62 57.5-57.62s57.5 25.82 57.5 57.63z" fill="#f58536"/><path d="M1993.06 1169.94h6.06v53.5h-6.06v-53.5zM2010.1 1183.5l15.88 12.94-15.87 13.5v-26.45z" fill="#fff"/><path d="M1953.98 1193.68l3.5 2.8-3.85 3.26h59.15v-6.06h-58.8zM1953.63 1173h45.5v-6.08h-45.14l3.45 2.8-3.82 3.27zM1957.45 1223.23l-3.82 3.26h45.5v-6.1h-45.14l3.45 2.83zM1941 1186.12l12.68 10.35-12.7 10.82v-21.18zM1941 1159.37l12.68 10.36-12.7 10.78v-21.13zM1941 1212.88l12.68 10.36-12.7 10.78v-21.14z" fill="#fff"/><use xlink:href="#s" transform="matrix(1,0,0,1,1920,1259.0775862068967) translate(10.49382716049383 17.77777777777778)"/><use xlink:href="#t" transform="matrix(1,0,0,1,1920,1259.0775862068967) translate(62.28395061728395 17.77777777777778)"/><use xlink:href="#n" transform="matrix(1,0,0,1,1920,1259.0775862068967) translate(16.172839506172842 44.44444444444444)"/><path d="M1395 942.36c0 31.8-25.76 57.63-57.5 57.63s-57.5-25.83-57.5-57.64c0-31.8 25.76-57.63 57.5-57.63s57.5 25.82 57.5 57.63z" fill="#9d5025"/><path d="M1395 937.63c0 31.8-25.76 57.63-57.5 57.63s-57.5-25.82-57.5-57.63c0-31.8 25.76-57.63 57.5-57.63s57.5 25.82 57.5 57.63z" fill="#f58536"/><path d="M1354.27 891.08V912h-33.56v-20.92h33.57zM1380.22 951.64v17.04h-17v-17.04h17zM1358.73 951.64v17.04h-17v-17.04h17zM1332.56 951.64v17.04h-17v-17.04h17zM1311.05 951.64v17.04h-17v-17.04h17z" fill="#fff"/><path d="M1301.02 936.9h3.06v16.7h-3.06v-16.7z" fill="#fff"/><path d="M1301.02 936.9h24.57v3.05H1301v-3.06z" fill="#fff"/><path d="M1322.53 936.9h3.06v16.7h-3.07v-16.7zM1348.7 936.9h3.06v16.7h-3.06v-16.7z" fill="#fff"/><path d="M1348.7 936.9h24.57v3.05h-24.57v-3.06z" fill="#fff"/><path d="M1370.2 936.9h3.07v16.7h-3.06v-16.7zM1311.8 924.95h3.06v13.47h-3.06v-13.47zM1335.96 908.92h3.06v16.28h-3.06v-16.28z" fill="#fff"/><path d="M1311.8 923.67h50.77v3.06h-50.77v-3.06z" fill="#fff"/><path d="M1359.5 924.95h3.07v13.47h-3.06v-13.47z" fill="#fff"/><use xlink:href="#u" transform="matrix(1,0,0,1,1280,1000) translate(3.271604938271601 17.77777777777778)"/><use xlink:href="#v" transform="matrix(1,0,0,1,1280,1000) translate(32.808641975308646 44.44444444444444)"/><use xlink:href="#w" transform="matrix(1,0,0,1,1280,1000) translate(13.734567901234563 71.11111111111111)"/><path d="M871.5 861.75v90.5c0 3.32 2.68 6 6 6h164.36" stroke="#5e5e5e" stroke-width="2" fill="none"/><path d="M872.5 861.78h-2v-1.03h2z" fill="#5e5e5e"/><path d="M1057.13 958.26l-14.27 4.63v-9.28z" stroke="#5e5e5e" stroke-width="2" fill="#5e5e5e"/><path d="M1146.6 951.9h115.72" stroke="#5e5e5e" stroke-width="2" fill="none"/><path d="M1146.63 952.9h-1.07l.08-2h1z" fill="#5e5e5e"/><path d="M1277.58 951.9l-14.26 4.62v-9.27z" stroke="#5e5e5e" stroke-width="2" fill="#5e5e5e"/><path d="M1520 968.15h120v29.6h-120v-29.6z" fill="#9d5025"/><path d="M1520 964.5h120v28.8h-120v-28.8z" fill="#f58536"/><path d="M1520 1006.57h120v30.9h-120v-30.9z" fill="#9d5025"/><path d="M1520 1004.22h120v28.8h-120v-28.8z" fill="#f58536"/><path d="M1520 1045.57h120v29.92h-120v-29.93z" fill="#9d5025"/><path d="M1520 1042.22h120v28.8h-120v-28.8z" fill="#f58536"/><path d="M1534.74 987.5h-2.68v-12.74h-3.6v-1.8h.3c1.66 0 3.5-.4 4.03-2.63v-.35h1.94zm15.45-14.98c-3.2 4.65-4.85 9.34-5.36 14.97h-2.9c.63-5.57 2.38-10.17 5.68-14.67h-7.52v-2.54h10.1zm12.25 14.97h-10c0-7.64 7.22-7.46 7.22-12.9 0-1.45-.62-2.65-2.17-2.65-2.06 0-2.36 1.8-2.36 3.6h-2.58c0-3.5 1.34-5.66 5.05-5.66 2.38-.3 4.54 1.38 4.85 3.76v.92c0 5.82-5.56 6.18-6.9 10.48h6.9zm5.87 0h-2.78v-3.27h2.78zm10 0h-2.8v-12.74h-3.6v-1.8h.3c1.66 0 3.62-.4 4.03-2.63v-.35h2.06zm10.3.34c-4.34 0-5.16-3.37-5.16-8.42 0-5.02.93-9.5 5.36-9.5 3.1 0 4.63 1.4 4.63 4.28h-2.68c0-1-.5-2.3-1.85-2.3-2.58 0-2.68 3.5-2.68 6.06.72-1.22 1.96-1.9 3.3-1.8 2.37 0 4.22 1.8 4.22 5.23.1 4.04-1.55 6.45-5.15 6.45zm10.9-.35h-2.77v-3.27h2.78zm8.04.34c-3.3 0-5.15-2.13-5.15-9 0-6.88 1.76-9 5.16-9 3.3 0 5.05 2.14 5.05 9 0 6.85-1.74 9-5.04 9zm10.7-.35h-2.67v-3.27h2.78zm8.05.34c-3.3 0-5.14-2.13-5.14-9 0-6.88 1.85-9 5.15-9 3.4 0 5.16 2.14 5.16 9 0 6.85-1.75 9-5.05 9zM1626.36 1009.7c3.3 0 5.16 2.13 5.16 9 0 6.9-1.76 9-5.16 9-3.3 0-5.15-2.2-5.15-9.05 0-6.86 1.87-8.94 5.16-8.94zm-10.7 14.27h2.77v3.34h-2.9zm-12.38-11.3h.2c1.65 0 3.6-.4 4.02-2.62v-.34h2.07v17.6h-2.9v-12.8h-3.5zm-6.5 11.3h2.8v3.34h-2.9zm-7.83-14.26c3 0 4.64 1.38 4.64 4.26h-2.9c0-1-.4-2.28-1.75-2.28-2.57 0-2.68 3.5-2.68 6.05.62-1.2 1.86-1.88 3.3-1.8 2.37 0 4.23 1.8 4.23 5.24 0 4.05-1.65 6.44-5.26 6.44-4.33 0-5.15-3.35-5.15-8.4 0-5.04 1.02-9.5 5.55-9.5zm-16.9 2.98h.2c1.66 0 3.62-.4 4.03-2.63v-.34h2.06v17.6h-2.78v-12.8h-3.6zm-6.5 11.3h2.8v3.33h-2.8zm-8.03-12.3c-2.06 0-2.37 1.8-2.37 3.6h-2.57c0-3.5 1.33-5.64 5.04-5.64 2.38-.3 4.54 1.4 4.75 3.76.1.33.1.6.1.9 0 5.84-5.57 6.2-6.9 10.5h6.9v2.5h-10c0-7.62 7.22-7.44 7.22-12.92 0-1.47-.63-2.7-2.18-2.7zm-17.4-1.63h10.08v2.23c-3.2 4.65-4.84 9.34-5.35 14.97h-2.9c.63-5.56 2.38-10.16 5.68-14.66h-7.52zm-11.56 2.63h.2c1.66 0 3.62-.4 4.03-2.63v-.34h2.05v17.6h-2.78v-12.8h-3.6zM1626.36 1047.75c3.3 0 5.16 2.12 5.16 9 0 6.87-1.76 9-5.16 9-3.3 0-5.15-2.25-5.15-9.06 0-6.82 1.87-8.95 5.16-8.95zm-10.7 14.26h2.77v3.3h-2.9zm-8.05-12.28c-2.05 0-2.36 1.8-2.36 3.6h-2.68c0-3.5 1.44-5.64 5.05-5.64 2.38-.3 4.54 1.4 4.85 3.76v.9c0 5.82-5.56 6.2-6.9 10.5h7v2.45h-10c0-7.63 7.12-7.47 7.12-12.94 0-1.43-.52-2.64-2.06-2.64zm-10.8 12.3h2.77v3.27h-2.9zm-7.85-14.27c3 0 4.64 1.37 4.64 4.25h-2.9c0-1-.4-2.28-1.75-2.28-2.57 0-2.68 3.5-2.68 6.05.62-1.22 1.86-1.9 3.3-1.8 2.37 0 4.23 1.8 4.23 5.24 0 4.06-1.65 6.45-5.26 6.45-4.33 0-5.15-3.36-5.15-8.4 0-5.05 1.02-9.5 5.55-9.5zm-16.9 2.97h.2c1.66 0 3.62-.4 4.03-2.63v-.35h2.06v17.54h-2.78v-12.8h-3.6zm-6.5 11.3h2.8v3.27h-2.8zm-8.03-12.3c-2.06 0-2.37 1.8-2.37 3.6h-2.57c0-3.5 1.33-5.64 5.04-5.64 2.38-.3 4.54 1.4 4.75 3.76.1.33.1.6.1.9 0 5.82-5.57 6.2-6.9 10.5h6.9v2.45h-10c0-7.63 7.22-7.47 7.22-12.94 0-1.43-.63-2.64-2.18-2.64zm-17.4-1.63h10.08v2.22c-3.2 4.65-4.84 9.34-5.35 14.97h-2.9c.63-5.57 2.38-10.17 5.68-14.67h-7.52zm-11.66 2.62h.3c1.66 0 3.62-.4 4.03-2.63v-.35h1.95v17.54h-2.68v-12.8h-3.6z" fill="#fff"/><path d="M1607.53 972.2c-1.88 0-2.37 1.8-2.37 6.97s.5 6.96 2.37 6.96c1.88 0 2.36-1.8 2.36-6.96 0-5.17-.5-6.97-2.37-6.97zM1626.38 972.2c-1.88 0-2.36 1.8-2.36 6.97s.48 6.96 2.36 6.96 2.36-1.8 2.36-6.96c0-5.17-.48-6.97-2.36-6.97zM1626.38 1025.87c1.88 0 2.36-1.8 2.36-6.96s-.48-6.96-2.36-6.96-2.36 1.8-2.36 6.97.46 6.97 2.36 6.97zM1588.84 1025.87c1.68 0 2.27-1.8 2.27-3.76 0-2.42-.7-3.8-2.26-3.8-2 0-2.36 1.8-2.36 3.94 0 2.12.68 3.63 2.36 3.63zM1626.38 1063.9c1.88 0 2.36-1.8 2.36-6.95 0-5.17-.48-6.97-2.36-6.97s-2.36 1.8-2.36 6.97c0 5.16.46 6.96 2.36 6.96zM1588.84 1063.9c1.68 0 2.27-1.8 2.27-3.75 0-2.43-.7-3.8-2.26-3.8-2 0-2.36 1.8-2.36 3.93 0 2.12.68 3.63 2.36 3.63zM1588.84 986.13c1.68 0 2.27-1.8 2.27-3.76 0-2.43-.7-3.8-2.26-3.8-2 0-2.36 1.8-2.36 3.93 0 2.12.68 3.63 2.36 3.63z" fill="#f58536"/><g><use xlink:href="#x" transform="matrix(1,0,0,1,1520,1075.5) translate(7.592592592592595 17.77777777777778)"/><use xlink:href="#y" transform="matrix(1,0,0,1,1520,1075.5) translate(64.32098765432099 17.77777777777778)"/></g><defs><path fill="#333" d="M205 0l-28-72H64L36 0H1l101-248h38L239 0h-34zm-38-99l-47-123c-12 45-31 82-46 123h93" id="z"/><path fill="#333" d="M266 0h-40l-56-210L115 0H75L2-248h35L96-30l15-64 43-154h32l59 218 59-218h35" id="A"/><path fill="#333" d="M185-189c-5-48-123-54-124 2 14 75 158 14 163 119 3 78-121 87-175 55-17-10-28-26-33-46l33-7c5 56 141 63 141-1 0-78-155-14-162-118-5-82 145-84 179-34 5 7 8 16 11 25" id="B"/><g id="a"><use transform="matrix(0.06172839506172839,0,0,0.06172839506172839,0,0)" xlink:href="#z"/><use transform="matrix(0.06172839506172839,0,0,0.06172839506172839,14.012345679012345,0)" xlink:href="#A"/><use transform="matrix(0.06172839506172839,0,0,0.06172839506172839,34.938271604938265,0)" xlink:href="#B"/></g><path fill="#333" d="M96-169c-40 0-48 33-48 73s9 75 48 75c24 0 41-14 43-38l32 2c-6 37-31 61-74 61-59 0-76-41-82-99-10-93 101-131 147-64 4 7 5 14 7 22l-32 3c-4-21-16-35-41-35" id="C"/><path fill="#333" d="M24 0v-261h32V0H24" id="D"/><path fill="#333" d="M100-194c62-1 85 37 85 99 1 63-27 99-86 99S16-35 15-95c0-66 28-99 85-99zM99-20c44 1 53-31 53-75 0-43-8-75-51-75s-53 32-53 75 10 74 51 75" id="E"/><path fill="#333" d="M84 4C-5 8 30-112 23-190h32v120c0 31 7 50 39 49 72-2 45-101 50-169h31l1 190h-30c-1-10 1-25-2-33-11 22-28 36-60 37" id="F"/><path fill="#333" d="M85-194c31 0 48 13 60 33l-1-100h32l1 261h-30c-2-10 0-23-3-31C134-8 116 4 85 4 32 4 16-35 15-94c0-66 23-100 70-100zm9 24c-40 0-46 34-46 75 0 40 6 74 45 74 42 0 51-32 51-76 0-42-9-74-50-73" id="G"/><g id="b"><use transform="matrix(0.06172839506172839,0,0,0.06172839506172839,0,0)" xlink:href="#C"/><use transform="matrix(0.06172839506172839,0,0,0.06172839506172839,11.11111111111111,0)" xlink:href="#D"/><use transform="matrix(0.06172839506172839,0,0,0.06172839506172839,15.987654320987653,0)" xlink:href="#E"/><use transform="matrix(0.06172839506172839,0,0,0.06172839506172839,28.333333333333332,0)" xlink:href="#F"/><use transform="matrix(0.06172839506172839,0,0,0.06172839506172839,40.67901234567901,0)" xlink:href="#G"/></g><path fill="#333" d="M232-93c-1 65-40 97-104 97C67 4 28-28 28-90v-158h33c8 89-33 224 67 224 102 0 64-133 71-224h33v155" id="H"/><path fill="#333" d="M135-143c-3-34-86-38-87 0 15 53 115 12 119 90S17 21 10-45l28-5c4 36 97 45 98 0-10-56-113-15-118-90-4-57 82-63 122-42 12 7 21 19 24 35" id="I"/><path fill="#333" d="M100-194c63 0 86 42 84 106H49c0 40 14 67 53 68 26 1 43-12 49-29l28 8c-11 28-37 45-77 45C44 4 14-33 15-96c1-61 26-98 85-98zm52 81c6-60-76-77-97-28-3 7-6 17-6 28h103" id="J"/><path fill="#333" d="M114-163C36-179 61-72 57 0H25l-1-190h30c1 12-1 29 2 39 6-27 23-49 58-41v29" id="K"/><g id="c"><use transform="matrix(0.06172839506172839,0,0,0.06172839506172839,0,0)" xlink:href="#H"/><use transform="matrix(0.06172839506172839,0,0,0.06172839506172839,15.987654320987653,0)" xlink:href="#I"/><use transform="matrix(0.06172839506172839,0,0,0.06172839506172839,27.098765432098766,0)" xlink:href="#J"/><use transform="matrix(0.06172839506172839,0,0,0.06172839506172839,39.44444444444444,0)" xlink:href="#K"/><use transform="matrix(0.06172839506172839,0,0,0.06172839506172839,46.79012345679012,0)" xlink:href="#I"/></g><path fill="#333" d="M108 0H70L1-190h34L89-25l56-165h34" id="L"/><path fill="#333" d="M141-36C126-15 110 5 73 4 37 3 15-17 15-53c-1-64 63-63 125-63 3-35-9-54-41-54-24 1-41 7-42 31l-33-3c5-37 33-52 76-52 45 0 72 20 72 64v82c-1 20 7 32 28 27v20c-31 9-61-2-59-35zM48-53c0 20 12 33 32 33 41-3 63-29 60-74-43 2-92-5-92 41" id="M"/><path fill="#333" d="M24-231v-30h32v30H24zM24 0v-190h32V0H24" id="N"/><path fill="#333" d="M115-194c53 0 69 39 70 98 0 66-23 100-70 100C84 3 66-7 56-30L54 0H23l1-261h32v101c10-23 28-34 59-34zm-8 174c40 0 45-34 45-75 0-40-5-75-45-74-42 0-51 32-51 76 0 43 10 73 51 73" id="O"/><path fill="#333" d="M59-47c-2 24 18 29 38 22v24C64 9 27 4 27-40v-127H5v-23h24l9-43h21v43h35v23H59v120" id="P"/><path fill="#333" d="M179-190L93 31C79 59 56 82 12 73V49c39 6 53-20 64-50L1-190h34L92-34l54-156h33" id="Q"/><g id="d"><use transform="matrix(0.06172839506172839,0,0,0.06172839506172839,0,0)" xlink:href="#z"/><use transform="matrix(0.06172839506172839,0,0,0.06172839506172839,14.382716049382715,0)" xlink:href="#L"/><use transform="matrix(0.06172839506172839,0,0,0.06172839506172839,25.493827160493826,0)" xlink:href="#M"/><use transform="matrix(0.06172839506172839,0,0,0.06172839506172839,37.839506172839506,0)" xlink:href="#N"/><use transform="matrix(0.06172839506172839,0,0,0.06172839506172839,42.71604938271605,0)" xlink:href="#D"/><use transform="matrix(0.06172839506172839,0,0,0.06172839506172839,47.592592592592595,0)" xlink:href="#M"/><use transform="matrix(0.06172839506172839,0,0,0.06172839506172839,59.93827160493827,0)" xlink:href="#O"/><use transform="matrix(0.06172839506172839,0,0,0.06172839506172839,72.28395061728395,0)" xlink:href="#N"/><use transform="matrix(0.06172839506172839,0,0,0.06172839506172839,77.1604938271605,0)" xlink:href="#D"/><use transform="matrix(0.06172839506172839,0,0,0.06172839506172839,82.03703703703704,0)" xlink:href="#N"/><use transform="matrix(0.06172839506172839,0,0,0.06172839506172839,86.91358024691358,0)" xlink:href="#P"/><use transform="matrix(0.06172839506172839,0,0,0.06172839506172839,93.08641975308642,0)" xlink:href="#Q"/></g><path fill="#333" d="M209 0H11v-25l151-195H24v-28h176v25L50-27h159V0" id="R"/><path fill="#333" d="M117-194c89-4 53 116 60 194h-32v-121c0-31-8-49-39-48C34-167 62-67 57 0H25l-1-190h30c1 10-1 24 2 32 11-22 29-35 61-36" id="S"/><g id="e"><use transform="matrix(0.06172839506172839,0,0,0.06172839506172839,0,0)" xlink:href="#R"/><use transform="matrix(0.06172839506172839,0,0,0.06172839506172839,13.518518518518517,0)" xlink:href="#E"/><use transform="matrix(0.06172839506172839,0,0,0.06172839506172839,25.864197530864196,0)" xlink:href="#S"/><use transform="matrix(0.06172839506172839,0,0,0.06172839506172839,38.20987654320987,0)" xlink:href="#J"/></g><g id="f"><use transform="matrix(0.06172839506172839,0,0,0.06172839506172839,0,0)" xlink:href="#L"/><use transform="matrix(0.06172839506172839,0,0,0.06172839506172839,11.11111111111111,0)" xlink:href="#N"/><use transform="matrix(0.06172839506172839,0,0,0.06172839506172839,15.987654320987653,0)" xlink:href="#K"/><use transform="matrix(0.06172839506172839,0,0,0.06172839506172839,23.333333333333332,0)" xlink:href="#P"/><use transform="matrix(0.06172839506172839,0,0,0.06172839506172839,29.50617283950617,0)" xlink:href="#F"/><use transform="matrix(0.06172839506172839,0,0,0.06172839506172839,41.85185185185185,0)" xlink:href="#M"/><use transform="matrix(0.06172839506172839,0,0,0.06172839506172839,54.197530864197525,0)" xlink:href="#D"/></g><path fill="#333" d="M115-194c55 1 70 41 70 98S169 2 115 4C84 4 66-9 55-30l1 105H24l-1-265h31l2 30c10-21 28-34 59-34zm-8 174c40 0 45-34 45-75s-6-73-45-74c-42 0-51 32-51 76 0 43 10 73 51 73" id="T"/><g id="g"><use transform="matrix(0.06172839506172839,0,0,0.06172839506172839,0,0)" xlink:href="#T"/><use transform="matrix(0.06172839506172839,0,0,0.06172839506172839,12.345679012345679,0)" xlink:href="#K"/><use transform="matrix(0.06172839506172839,0,0,0.06172839506172839,19.691358024691358,0)" xlink:href="#N"/><use transform="matrix(0.06172839506172839,0,0,0.06172839506172839,24.5679012345679,0)" xlink:href="#L"/><use transform="matrix(0.06172839506172839,0,0,0.06172839506172839,35.67901234567901,0)" xlink:href="#M"/><use transform="matrix(0.06172839506172839,0,0,0.06172839506172839,48.02469135802469,0)" xlink:href="#P"/><use transform="matrix(0.06172839506172839,0,0,0.06172839506172839,54.19753086419753,0)" xlink:href="#J"/></g><g id="h"><use transform="matrix(0.06172839506172839,0,0,0.06172839506172839,0,0)" xlink:href="#T"/><use transform="matrix(0.06172839506172839,0,0,0.06172839506172839,12.345679012345679,0)" xlink:href="#F"/><use transform="matrix(0.06172839506172839,0,0,0.06172839506172839,24.691358024691358,0)" xlink:href="#O"/><use transform="matrix(0.06172839506172839,0,0,0.06172839506172839,37.03703703703704,0)" xlink:href="#D"/><use transform="matrix(0.06172839506172839,0,0,0.06172839506172839,41.91358024691358,0)" xlink:href="#N"/><use transform="matrix(0.06172839506172839,0,0,0.06172839506172839,46.79012345679013,0)" xlink:href="#C"/></g><g id="i"><use transform="matrix(0.06172839506172839,0,0,0.06172839506172839,0,0)" xlink:href="#I"/><use transform="matrix(0.06172839506172839,0,0,0.06172839506172839,11.11111111111111,0)" xlink:href="#F"/><use transform="matrix(0.06172839506172839,0,0,0.06172839506172839,23.45679012345679,0)" xlink:href="#O"/><use transform="matrix(0.06172839506172839,0,0,0.06172839506172839,35.80246913580247,0)" xlink:href="#S"/><use transform="matrix(0.06172839506172839,0,0,0.06172839506172839,48.148148148148145,0)" xlink:href="#J"/><use transform="matrix(0.06172839506172839,0,0,0.06172839506172839,60.49382716049382,0)" xlink:href="#P"/></g><path fill="#333" d="M27 0v-27h64v-190l-56 39v-29l58-41h29v221h61V0H27" id="U"/><use transform="matrix(0.06172839506172839,0,0,0.06172839506172839,0,0)" xlink:href="#U" id="j"/><path fill="#333" d="M101-251c82-7 93 87 43 132L82-64C71-53 59-42 53-27h129V0H18c2-99 128-94 128-182 0-28-16-43-45-43s-46 15-49 41l-32-3c6-41 34-60 81-64" id="V"/><use transform="matrix(0.06172839506172839,0,0,0.06172839506172839,0,0)" xlink:href="#V" id="k"/><g id="l"><use transform="matrix(0.06172839506172839,0,0,0.06172839506172839,0,0)" xlink:href="#T"/><use transform="matrix(0.06172839506172839,0,0,0.06172839506172839,12.345679012345679,0)" xlink:href="#K"/><use transform="matrix(0.06172839506172839,0,0,0.06172839506172839,19.691358024691358,0)" xlink:href="#N"/><use transform="matrix(0.06172839506172839,0,0,0.06172839506172839,24.5679012345679,0)" xlink:href="#L"/><use transform="matrix(0.06172839506172839,0,0,0.06172839506172839,35.67901234567901,0)" xlink:href="#M"/><use transform="matrix(0.06172839506172839,0,0,0.06172839506172839,48.02469135802469,0)" xlink:href="#P"/><use transform="matrix(0.06172839506172839,0,0,0.06172839506172839,54.19753086419753,0)" xlink:href="#J"/></g><g id="m"><use transform="matrix(0.06172839506172839,0,0,0.06172839506172839,0,0)" xlink:href="#N"/><use transform="matrix(0.06172839506172839,0,0,0.06172839506172839,4.876543209876543,0)" xlink:href="#S"/><use transform="matrix(0.06172839506172839,0,0,0.06172839506172839,17.22222222222222,0)" xlink:href="#P"/><use transform="matrix(0.06172839506172839,0,0,0.06172839506172839,23.39506172839506,0)" xlink:href="#J"/><use transform="matrix(0.06172839506172839,0,0,0.06172839506172839,35.74074074074074,0)" xlink:href="#K"/><use transform="matrix(0.06172839506172839,0,0,0.06172839506172839,43.08641975308642,0)" xlink:href="#S"/><use transform="matrix(0.06172839506172839,0,0,0.06172839506172839,55.432098765432094,0)" xlink:href="#J"/><use transform="matrix(0.06172839506172839,0,0,0.06172839506172839,67.77777777777777,0)" xlink:href="#P"/></g><path fill="#333" d="M177-190C167-65 218 103 67 71c-23-6-38-20-44-43l32-5c15 47 100 32 89-28v-30C133-14 115 1 83 1 29 1 15-40 15-95c0-56 16-97 71-98 29-1 48 16 59 35 1-10 0-23 2-32h30zM94-22c36 0 50-32 50-73 0-42-14-75-50-75-39 0-46 34-46 75s6 73 46 73" id="W"/><path fill="#333" d="M206 0h-36l-40-164L89 0H53L-1-190h32L70-26l43-164h34l41 164 42-164h31" id="X"/><g id="n"><use transform="matrix(0.06172839506172839,0,0,0.06172839506172839,0,0)" xlink:href="#W"/><use transform="matrix(0.06172839506172839,0,0,0.06172839506172839,12.345679012345679,0)" xlink:href="#M"/><use transform="matrix(0.06172839506172839,0,0,0.06172839506172839,24.691358024691358,0)" xlink:href="#P"/><use transform="matrix(0.06172839506172839,0,0,0.06172839506172839,30.864197530864196,0)" xlink:href="#J"/><use transform="matrix(0.06172839506172839,0,0,0.06172839506172839,43.20987654320987,0)" xlink:href="#X"/><use transform="matrix(0.06172839506172839,0,0,0.06172839506172839,59.197530864197525,0)" xlink:href="#M"/><use transform="matrix(0.06172839506172839,0,0,0.06172839506172839,71.5432098765432,0)" xlink:href="#Q"/></g><path fill="#d86613" d="M205 0l-28-72H64L36 0H1l101-248h38L239 0h-34zm-38-99l-47-123c-12 45-31 82-46 123h93" id="Y"/><path fill="#d86613" d="M84 4C-5 8 30-112 23-190h32v120c0 31 7 50 39 49 72-2 45-101 50-169h31l1 190h-30c-1-10 1-25-2-33-11 22-28 36-60 37" id="Z"/><path fill="#d86613" d="M59-47c-2 24 18 29 38 22v24C64 9 27 4 27-40v-127H5v-23h24l9-43h21v43h35v23H59v120" id="aa"/><path fill="#d86613" d="M100-194c62-1 85 37 85 99 1 63-27 99-86 99S16-35 15-95c0-66 28-99 85-99zM99-20c44 1 53-31 53-75 0-43-8-75-51-75s-53 32-53 75 10 74 51 75" id="ab"/><g id="o"><use transform="matrix(0.05,0,0,0.05,0,0)" xlink:href="#Y"/><use transform="matrix(0.05,0,0,0.05,12,0)" xlink:href="#Z"/><use transform="matrix(0.05,0,0,0.05,22,0)" xlink:href="#aa"/><use transform="matrix(0.05,0,0,0.05,27,0)" xlink:href="#ab"/></g><path fill="#d86613" d="M185-189c-5-48-123-54-124 2 14 75 158 14 163 119 3 78-121 87-175 55-17-10-28-26-33-46l33-7c5 56 141 63 141-1 0-78-155-14-162-118-5-82 145-84 179-34 5 7 8 16 11 25" id="ac"/><path fill="#d86613" d="M96-169c-40 0-48 33-48 73s9 75 48 75c24 0 41-14 43-38l32 2c-6 37-31 61-74 61-59 0-76-41-82-99-10-93 101-131 147-64 4 7 5 14 7 22l-32 3c-4-21-16-35-41-35" id="ad"/><path fill="#d86613" d="M141-36C126-15 110 5 73 4 37 3 15-17 15-53c-1-64 63-63 125-63 3-35-9-54-41-54-24 1-41 7-42 31l-33-3c5-37 33-52 76-52 45 0 72 20 72 64v82c-1 20 7 32 28 27v20c-31 9-61-2-59-35zM48-53c0 20 12 33 32 33 41-3 63-29 60-74-43 2-92-5-92 41" id="ae"/><path fill="#d86613" d="M24 0v-261h32V0H24" id="af"/><path fill="#d86613" d="M24-231v-30h32v30H24zM24 0v-190h32V0H24" id="ag"/><path fill="#d86613" d="M117-194c89-4 53 116 60 194h-32v-121c0-31-8-49-39-48C34-167 62-67 57 0H25l-1-190h30c1 10-1 24 2 32 11-22 29-35 61-36" id="ah"/><path fill="#d86613" d="M177-190C167-65 218 103 67 71c-23-6-38-20-44-43l32-5c15 47 100 32 89-28v-30C133-14 115 1 83 1 29 1 15-40 15-95c0-56 16-97 71-98 29-1 48 16 59 35 1-10 0-23 2-32h30zM94-22c36 0 50-32 50-73 0-42-14-75-50-75-39 0-46 34-46 75s6 73 46 73" id="ai"/><g id="p"><use transform="matrix(0.05,0,0,0.05,0,0)" xlink:href="#ac"/><use transform="matrix(0.05,0,0,0.05,12,0)" xlink:href="#ad"/><use transform="matrix(0.05,0,0,0.05,21,0)" xlink:href="#ae"/><use transform="matrix(0.05,0,0,0.05,31,0)" xlink:href="#af"/><use transform="matrix(0.05,0,0,0.05,34.95,0)" xlink:href="#ag"/><use transform="matrix(0.05,0,0,0.05,38.900000000000006,0)" xlink:href="#ah"/><use transform="matrix(0.05,0,0,0.05,48.900000000000006,0)" xlink:href="#ai"/></g><path fill="#333" d="M210-169c-67 3-38 105-44 169h-31v-121c0-29-5-50-35-48C34-165 62-65 56 0H25l-1-190h30c1 10-1 24 2 32 10-44 99-50 107 0 11-21 27-35 58-36 85-2 47 119 55 194h-31v-121c0-29-5-49-35-48" id="aj"/><path fill="#333" d="M9 0v-24l116-142H16v-24h144v24L44-24h123V0H9" id="ak"/><g id="q"><use transform="matrix(0.06172839506172839,0,0,0.06172839506172839,0,0)" xlink:href="#z"/><use transform="matrix(0.06172839506172839,0,0,0.06172839506172839,14.814814814814813,0)" xlink:href="#aj"/><use transform="matrix(0.06172839506172839,0,0,0.06172839506172839,33.2716049382716,0)" xlink:href="#M"/><use transform="matrix(0.06172839506172839,0,0,0.06172839506172839,45.61728395061728,0)" xlink:href="#ak"/><use transform="matrix(0.06172839506172839,0,0,0.06172839506172839,56.72839506172839,0)" xlink:href="#E"/><use transform="matrix(0.06172839506172839,0,0,0.06172839506172839,69.07407407407408,0)" xlink:href="#S"/></g><path fill="#333" d="M30 0v-248h187v28H63v79h144v27H63v87h162V0H30" id="al"/><path fill="#333" d="M212-179c-10-28-35-45-73-45-59 0-87 40-87 99 0 60 29 101 89 101 43 0 62-24 78-52l27 14C228-24 195 4 139 4 59 4 22-46 18-125c-6-104 99-153 187-111 19 9 31 26 39 46" id="am"/><g id="r"><use transform="matrix(0.06172839506172839,0,0,0.06172839506172839,0,0)" xlink:href="#al"/><use transform="matrix(0.06172839506172839,0,0,0.06172839506172839,14.814814814814813,0)" xlink:href="#am"/><use transform="matrix(0.06172839506172839,0,0,0.06172839506172839,30.80246913580247,0)" xlink:href="#V"/></g><path fill="#333" d="M137 0h-34L2-248h35l83 218 83-218h36" id="an"/><path fill="#333" d="M30-248c87 1 191-15 191 75 0 78-77 80-158 76V0H30v-248zm33 125c57 0 124 11 124-50 0-59-68-47-124-48v98" id="ao"/><g id="s"><use transform="matrix(0.06172839506172839,0,0,0.06172839506172839,0,0)" xlink:href="#an"/><use transform="matrix(0.06172839506172839,0,0,0.06172839506172839,14.814814814814813,0)" xlink:href="#ao"/><use transform="matrix(0.06172839506172839,0,0,0.06172839506172839,29.629629629629626,0)" xlink:href="#am"/></g><path fill="#333" d="M190 0L58-211 59 0H30v-248h39L202-35l-2-213h31V0h-41" id="ap"/><path fill="#333" d="M127-220V0H93v-220H8v-28h204v28h-85" id="aq"/><g id="t"><use transform="matrix(0.06172839506172839,0,0,0.06172839506172839,0,0)" xlink:href="#ap"/><use transform="matrix(0.06172839506172839,0,0,0.06172839506172839,15.987654320987653,0)" xlink:href="#z"/><use transform="matrix(0.06172839506172839,0,0,0.06172839506172839,29.1358024691358,0)" xlink:href="#aq"/></g><g id="u"><use transform="matrix(0.06172839506172839,0,0,0.06172839506172839,0,0)" xlink:href="#z"/><use transform="matrix(0.06172839506172839,0,0,0.06172839506172839,14.814814814814813,0)" xlink:href="#T"/><use transform="matrix(0.06172839506172839,0,0,0.06172839506172839,27.160493827160494,0)" xlink:href="#T"/><use transform="matrix(0.06172839506172839,0,0,0.06172839506172839,39.50617283950617,0)" xlink:href="#D"/><use transform="matrix(0.06172839506172839,0,0,0.06172839506172839,44.382716049382715,0)" xlink:href="#N"/><use transform="matrix(0.06172839506172839,0,0,0.06172839506172839,49.25925925925926,0)" xlink:href="#C"/><use transform="matrix(0.06172839506172839,0,0,0.06172839506172839,60.37037037037037,0)" xlink:href="#M"/><use transform="matrix(0.06172839506172839,0,0,0.06172839506172839,72.71604938271605,0)" xlink:href="#P"/><use transform="matrix(0.06172839506172839,0,0,0.06172839506172839,78.88888888888889,0)" xlink:href="#N"/><use transform="matrix(0.06172839506172839,0,0,0.06172839506172839,83.76543209876543,0)" xlink:href="#E"/><use transform="matrix(0.06172839506172839,0,0,0.06172839506172839,96.11111111111111,0)" xlink:href="#S"/></g><path fill="#333" d="M30 0v-248h33v221h125V0H30" id="ar"/><g id="v"><use transform="matrix(0.06172839506172839,0,0,0.06172839506172839,0,0)" xlink:href="#ar"/><use transform="matrix(0.06172839506172839,0,0,0.06172839506172839,12.345679012345679,0)" xlink:href="#E"/><use transform="matrix(0.06172839506172839,0,0,0.06172839506172839,24.691358024691358,0)" xlink:href="#M"/><use transform="matrix(0.06172839506172839,0,0,0.06172839506172839,37.03703703703704,0)" xlink:href="#G"/></g><path fill="#333" d="M160-131c35 5 61 23 61 61C221 17 115-2 30 0v-248c76 3 177-17 177 60 0 33-19 50-47 57zm-97-11c50-1 110 9 110-42 0-47-63-36-110-37v79zm0 115c55-2 124 14 124-45 0-56-70-42-124-44v89" id="as"/><g id="w"><use transform="matrix(0.06172839506172839,0,0,0.06172839506172839,0,0)" xlink:href="#as"/><use transform="matrix(0.06172839506172839,0,0,0.06172839506172839,14.814814814814813,0)" xlink:href="#M"/><use transform="matrix(0.06172839506172839,0,0,0.06172839506172839,27.160493827160494,0)" xlink:href="#D"/><use transform="matrix(0.06172839506172839,0,0,0.06172839506172839,32.03703703703704,0)" xlink:href="#M"/><use transform="matrix(0.06172839506172839,0,0,0.06172839506172839,44.382716049382715,0)" xlink:href="#S"/><use transform="matrix(0.06172839506172839,0,0,0.06172839506172839,56.72839506172839,0)" xlink:href="#C"/><use transform="matrix(0.06172839506172839,0,0,0.06172839506172839,67.8395061728395,0)" xlink:href="#J"/><use transform="matrix(0.06172839506172839,0,0,0.06172839506172839,80.18518518518519,0)" xlink:href="#K"/></g><g id="x"><use transform="matrix(0.06172839506172839,0,0,0.06172839506172839,0,0)" xlink:href="#K"/><use transform="matrix(0.06172839506172839,0,0,0.06172839506172839,7.345679012345679,0)" xlink:href="#E"/><use transform="matrix(0.06172839506172839,0,0,0.06172839506172839,19.691358024691358,0)" xlink:href="#F"/><use transform="matrix(0.06172839506172839,0,0,0.06172839506172839,32.03703703703704,0)" xlink:href="#P"/><use transform="matrix(0.06172839506172839,0,0,0.06172839506172839,38.20987654320988,0)" xlink:href="#J"/></g><g id="y"><use transform="matrix(0.06172839506172839,0,0,0.06172839506172839,0,0)" xlink:href="#P"/><use transform="matrix(0.06172839506172839,0,0,0.06172839506172839,6.172839506172839,0)" xlink:href="#M"/><use transform="matrix(0.06172839506172839,0,0,0.06172839506172839,18.51851851851852,0)" xlink:href="#O"/><use transform="matrix(0.06172839506172839,0,0,0.06172839506172839,30.864197530864196,0)" xlink:href="#D"/><use transform="matrix(0.06172839506172839,0,0,0.06172839506172839,35.74074074074074,0)" xlink:href="#J"/></g></defs></g></svg>